<svg width="18" height="21" viewBox="0 0 18 21" fill="none" xmlns="http://www.w3.org/2000/svg">
<path d="M5.98864 1.63636V6H5.47727L3.09943 2.57386H3.05682V6H2.52841V1.63636H3.03977L5.42614 5.07102H5.46875V1.63636H5.98864ZM8.39258 6H7.04599V1.63636H8.45224C8.87553 1.63636 9.23775 1.72372 9.53888 1.89844C9.84002 2.07173 10.0708 2.32102 10.2314 2.64631C10.3919 2.97017 10.4721 3.35795 10.4721 3.80966C10.4721 4.2642 10.3912 4.65554 10.2292 4.98366C10.0673 5.31037 9.8315 5.56179 9.52184 5.73793C9.21218 5.91264 8.83576 6 8.39258 6ZM7.5744 5.53125H8.35849C8.71928 5.53125 9.01829 5.46165 9.2555 5.32244C9.49272 5.18324 9.66957 4.98509 9.78604 4.72798C9.90252 4.47088 9.96076 4.16477 9.96076 3.80966C9.96076 3.45739 9.90323 3.15412 9.78817 2.89986C9.67312 2.64418 9.50124 2.44815 9.27255 2.31179C9.04386 2.17401 8.75906 2.10511 8.41815 2.10511H7.5744V5.53125ZM11.3324 6H10.7784L12.3807 1.63636H12.9261L14.5284 6H13.9744L12.6705 2.3267H12.6364L11.3324 6ZM11.5369 4.29545H13.7699V4.7642H11.5369V4.29545Z" fill="white"/>
<g clip-path="url(#clip0_4402_7)">
<path d="M11.2857 18.6074C12.5677 18.6074 13.6071 17.5682 13.6071 16.286C13.6071 15.0039 12.5677 13.9646 11.2857 13.9646C10.0036 13.9646 8.96423 15.0039 8.96423 16.286C8.96423 17.5682 10.0036 18.6074 11.2857 18.6074Z" stroke="white" stroke-linecap="round" stroke-linejoin="round"/>
<path d="M14.5351 19.5356L12.9287 17.9292" stroke="white" stroke-linecap="round" stroke-linejoin="round"/>
<path d="M8.49995 8.8577C8.49995 8.08845 7.87635 7.46484 7.10709 7.46484H2.46423V16.7505H7.10709" stroke="white" stroke-linecap="round" stroke-linejoin="round"/>
<path d="M8.5 8.85742V13.036" stroke="white" stroke-linecap="round" stroke-linejoin="round"/>
<path d="M8.5 8.85721C8.5 8.08796 9.1236 7.46436 9.89286 7.46436H14.5357V13.9646" stroke="white" stroke-linecap="round" stroke-linejoin="round"/>
</g>
<defs>
<clipPath id="clip0_4402_7">
<rect width="13" height="13" fill="white" transform="translate(2 7)"/>
</clipPath>
</defs>
</svg>
