<svg width="14" height="14" viewBox="0 0 14 14" fill="none" xmlns="http://www.w3.org/2000/svg">
<g clip-path="url(#clip0_2767_35202)">
<path d="M11.3657 7.31835C11.4686 6.89769 11.5231 6.45807 11.5231 6.00571C11.5231 2.96499 9.05815 0.5 6.01743 0.5C2.97671 0.5 0.511719 2.96499 0.511719 6.00571C0.511719 8.26419 1.87157 10.205 3.81716 11.0542" stroke="white" stroke-linecap="round" stroke-linejoin="round"/>
<path d="M0.511719 6.00562H11.5231" stroke="white" stroke-linecap="round" stroke-linejoin="round"/>
<path d="M4.38187 8.54688C4.1072 7.73077 3.94304 6.87621 3.89807 6.00571C4.00209 3.99232 4.74368 2.06417 6.01565 0.5C7.28763 2.06417 8.02922 3.99232 8.13324 6.00571C8.11491 6.3605 8.07678 6.71263 8.01945 7.06059" stroke="white" stroke-linecap="round" stroke-linejoin="round"/>
<path d="M9.45839 8.17798L13.4878 9.92383L9.45839 11.6697L5.42896 9.92383L9.45839 8.17798Z" stroke="white" stroke-linecap="round" stroke-linejoin="round"/>
<path d="M7.25708 10.7202L7.26107 12.6198C7.26107 12.6198 7.92633 13.5001 9.45807 13.5001C10.9898 13.5001 11.6586 12.6198 11.6586 12.6198L11.6582 10.7202" stroke="white" stroke-linecap="round" stroke-linejoin="round"/>
<path d="M5.42896 12.9949V9.92383" stroke="white" stroke-linecap="round" stroke-linejoin="round"/>
</g>
<defs>
<clipPath id="clip0_2767_35202">
<rect width="14" height="14" fill="white"/>
</clipPath>
</defs>
</svg>
