<?xml version="1.0" encoding="UTF-8"?><svg id="Layer_2" xmlns="http://www.w3.org/2000/svg" viewBox="0 0 1741 1385.5"><defs><style>.cls-1{font-size:43.77px;}.cls-1,.cls-2,.cls-3,.cls-4{fill:#133072;}.cls-1,.cls-3{font-family:ParksonPERSONALUSE-DemiBold, 'Parkson PERSONAL USE';font-weight:300;}.cls-2{font-family:Anybody-NarrowMedium, Anybody;font-size:67px;font-weight:500;}.cls-3{font-size:59px;}.cls-5{fill:#d0cecc;}</style></defs><path class="cls-5" d="M216,412c5.9,10.86,10.67,22.6,14.33,35.19,10.89.86,33.77,4.59,67.67,19.81,3.01,1.81-40.4-13.77-66-13.69,3.86,15.05,6.19,31.28,7,48.69,50.38-4.41,101.4,9.4,153,40-33.74-89.77-90.87-135.97-176-130Z"/><path class="cls-4" d="M390,479c-13.26-76.69-49-127-129-146,41,47,89,83,129,146Z"/><path class="cls-4" d="M177,365l33,51c94.9.23,146.07,53.3,181,126-32.86-116.83-106.48-172.39-214-177Z"/><path class="cls-5" d="M594.85,418.19c-6.27,10.65-11.45,22.21-15.55,34.67-10.91.47-33.91,3.4-68.32,17.43-3.07,1.7,40.85-12.35,66.43-11.38-4.38,14.91-7.28,31.04-8.69,48.42-50.2-6.17-101.66,5.85-154.3,34.63,36.86-88.54,95.56-132.72,180.43-123.77Z"/><path class="cls-4" d="M418.61,479.07c15.93-76.18,53.41-125.21,134.02-141.4-42.62,45.54-91.85,79.84-134.02,141.4Z"/><path class="cls-4" d="M635.47,372.58l-34.76,49.82c-94.85-3.09-147.84,48.17-185.29,119.6,36.92-115.61,112.44-168.57,220.05-169.42Z"/><path class="cls-4" d="M537.45,297.63c-.53-2.71-1.91-5.17-3.86-7.13-57-57.47-187.89-69.32-258.23,1.12-1.32,1.32-2.41,2.87-3.06,4.62-2.71,7.22,3.2,12.14,13.7,14.77,12,3,36,12.5,77,52.5s78,6,85,0,60-53.5,78-53.5c11.82,0,12.43-7.33,11.45-12.37ZM342,329l-7-6,25-26,4,4-22,28ZM406,372c-18.23,0-33-15.67-33-35,0-8.83,3.09-16.89,8.18-23.05l18.59,16.05h38.57c.43,2.26.66,4.6.66,7,0,19.33-14.77,35-33,35ZM436.64,324h-34.64l-16.6-14.33-27.4-23.67h69l45,38h-35.36Z"/><text class="cls-3" transform="translate(168.42 302.94) rotate(-66.5) scale(1.12 .95)"><tspan x="0" y="0" xml:space="preserve"> MIND SCALE TEST PORTAL FOR</tspan></text><text class="cls-1" transform="translate(163.03 557.85) rotate(54.96) scale(1.13 .95)"><tspan x="0" y="0"> </tspan></text><text class="cls-1" transform="translate(171.5 569.84) rotate(51.38) scale(1.13 .95)"><tspan x="0" y="0">NDA</tspan></text><text class="cls-1" transform="translate(220.64 620.73) rotate(38.28) scale(1.13 .95)"><tspan x="0" y="0"> </tspan></text><text class="cls-1" transform="translate(232.51 629.98) rotate(34.76) scale(1.13 .95)"><tspan x="0" y="0">AN</tspan></text><text class="cls-1" transform="translate(276.69 656.68) rotate(24.53) scale(1.13 .95)"><tspan x="0" y="0">D</tspan></text><text class="cls-1" transform="translate(299.24 666.46) rotate(20.21) scale(1.13 .95)"><tspan x="0" y="0"> </tspan></text><text class="cls-1" transform="translate(314.94 672.06) rotate(16.41) scale(1.13 .95)"><tspan x="0" y="0">SCHOLARSHIP</tspan></text><text class="cls-1" transform="translate(553.91 645.5) rotate(-31.6) scale(1.13 .95)"><tspan x="0" y="0" xml:space="preserve"> TESTS</tspan></text><path class="cls-4" d="M271.36,531.79c34.19,34.11,81.46,55.21,133.64,55.21,52.18,0,99.45-21.1,133.64-55.21,4.09-4.08,7.99-8.35,11.7-12.79h-7.91c-2.59,2.93-5.25,5.78-8.02,8.54-33.13,33.03-78.86,53.45-129.4,53.46-50.55,0-96.28-20.42-129.4-53.46-2.77-2.76-5.44-5.61-8.02-8.54h-7.91c3.7,4.44,7.6,8.71,11.7,12.79Z"/><path class="cls-4" d="M275.6,269.46c33.13-33.03,78.86-53.45,129.4-53.46,50.55,0,96.28,20.42,129.4,53.46,10.93,10.9,20.47,23.18,28.37,36.54h6.93c-8.48-14.99-18.95-28.71-31.06-40.79-34.19-34.11-81.46-55.21-133.64-55.21-52.18,0-99.45,21.1-133.64,55.21-12.11,12.08-22.58,25.8-31.06,40.79h6.93c7.89-13.36,17.44-25.64,28.37-36.54Z"/><path class="cls-4" d="M773,507h-181.86c-2.4,4.07-4.93,8.08-7.6,12-7.63,11.2-16.37,21.76-26.18,31.56-40.74,40.61-94.76,62.93-152.35,62.94-57.59-.01-111.62-22.33-152.35-62.94-9.81-9.79-18.55-20.36-26.18-31.56-2.67-3.92-5.21-7.93-7.6-12H37c-3.31,0-6,2.69-6,6s2.69,6,6,6h61.23c16.38,41.6,41.31,79.77,73.92,112.28,62.18,62.03,144.96,96.24,232.85,96.22,87.89.01,170.67-34.19,232.85-96.22,32.61-32.51,57.54-70.68,73.92-112.28h61.23c3.31,0,6-2.69,6-6s-2.69-6-6-6ZM628.67,622.07c-59.8,59.63-139.15,92.42-223.67,92.43-84.52-.01-163.87-32.8-223.67-92.43-30.09-30.02-53.37-64.99-69.1-103.07h98.71c9.15,14.61,20.02,28.29,32.53,40.76,43.12,43.02,100.57,66.75,161.53,66.74,60.97.01,118.42-23.72,161.53-66.74,12.51-12.47,23.38-26.15,32.53-40.76h98.71c-15.72,38.08-39,73.05-69.1,103.07Z"/><path class="cls-4" d="M37,318h168.06c1.64-4.05,3.39-8.05,5.28-12,10.44-21.82,24.64-41.93,42.31-59.56,40.74-40.61,94.76-62.93,152.35-62.94,57.59.01,111.62,22.33,152.35,62.94,17.66,17.62,31.87,37.74,42.31,59.56,1.89,3.95,3.64,7.95,5.28,12h168.06c3.31,0,6-2.69,6-6s-2.69-6-6-6h-51.66c-15.32-52.49-43.69-100.6-83.48-140.27-62.18-62.03-144.96-96.24-232.86-96.23-87.89-.01-170.67,34.2-232.86,96.22-39.8,39.68-68.17,87.79-83.49,140.28h-51.66c-3.31,0-6,2.69-6,6s2.69,6,6,6ZM181.32,174.93c59.8-59.63,139.16-92.42,223.68-92.43,84.52.01,163.87,32.8,223.68,92.43,37.33,37.24,64.18,82.09,79.12,131.07h-93.82c-11.27-25.32-27.24-48.61-47.45-68.76-43.12-43.02-100.57-66.75-161.53-66.74-60.97-.01-118.42,23.72-161.53,66.74-20.21,20.15-36.18,43.44-47.45,68.76h-93.82c14.94-48.98,41.79-93.83,79.12-131.07Z"/><text class="cls-2" transform="translate(101.66 401.93) scale(.95 1)"><tspan x="0" y="0">ES</tspan></text><text class="cls-2" transform="translate(100.66 465.93) scale(.95 1)"><tspan x="0" y="0">TD</tspan></text><text class="cls-2" transform="translate(653.66 401.93) scale(.95 1)"><tspan x="0" y="0">20</tspan></text><text class="cls-2" transform="translate(654.66 466.93) scale(.95 1)"><tspan x="0" y="0">25</tspan></text></svg>